<?xml version="1.0" encoding="UTF-8" standalone="no"?>
<!-- Created with Inkscape (http://www.inkscape.org/) -->

<svg
   version="1.1"
   id="svg1"
   width="1204"
   height="250"
   viewBox="0 0 1204 250"
   sodipodi:docname="Nomafont.svg"
   inkscape:version="1.3 (0e150ed6c4, 2023-07-21)"
   xmlns:inkscape="http://www.inkscape.org/namespaces/inkscape"
   xmlns:sodipodi="http://sodipodi.sourceforge.net/DTD/sodipodi-0.dtd"
   xmlns="http://www.w3.org/2000/svg"
   xmlns:svg="http://www.w3.org/2000/svg"
   xmlns:rdf="http://www.w3.org/1999/02/22-rdf-syntax-ns#"
   xmlns:cc="http://creativecommons.org/ns#"
   xmlns:dc="http://purl.org/dc/elements/1.1/">
  <title
     id="title1">Nomafont Pro</title>
  <defs
     id="defs1" />
  <sodipodi:namedview
     id="namedview1"
     pagecolor="#ffffff"
     bordercolor="#000000"
     borderopacity="0.25"
     inkscape:showpageshadow="2"
     inkscape:pageopacity="0.0"
     inkscape:pagecheckerboard="0"
     inkscape:deskcolor="#d1d1d1"
     showgrid="false"
     inkscape:zoom="0.40189077"
     inkscape:cx="449.12701"
     inkscape:cy="302.32095"
     inkscape:window-width="1920"
     inkscape:window-height="1009"
     inkscape:window-x="-8"
     inkscape:window-y="-8"
     inkscape:window-maximized="1"
     inkscape:current-layer="svg1" />
  <path
     style="font-size:160px;font-family:'Gothamriad Pro';-inkscape-font-specification:'Gothamriad Pro, Normal';font-feature-settings:'ss03';fill:#0000a6;stroke:#16f069;stroke-width:1;stroke-dasharray:none"
     d="m 108.07985,181 v -71.2 l 54.24,71.2 h 20.96 V 69 h -24.32 v 68.96 L 106.47985,69 H 83.759855 V 181 Z M 205.2,125 c 0,33.76 26.08,57.92 59.36,57.92 33.12,0 59.68,-24.32 59.68,-57.92 0,-33.76 -26.08,-57.92 -59.36,-57.92 -33.12,0 -59.68,24.32 -59.68,57.92 z m 93.28,0 c 0,19.68 -13.44,35.2 -33.6,35.2 -20,0 -33.92,-15.68 -33.92,-35.2 0,-19.68 13.44,-35.2 33.6,-35.2 20,0 33.92,15.68 33.92,35.2 z m 72.16006,56 V 90.12 h 1.6 l 26.72,90.88 h 24 l 26.72,-90.88 h 1.6 V 181 h 24.48 V 69 h -42.72 l -22.08,78.72 -22.08,-78.72 h -42.72 v 112 z m 213.9201,0 h 27.2 l -48,-112.8 h -22.72 l -48,112.8 h 27.2 l 9.6,-25.12 h 45.12 z m -46.24,-46.88 14.08,-36.32 14.08,36.32 z M 768.07995,125 c 0,33.76 26.08,57.92 59.36,57.92 33.12,0 59.68,-24.32 59.68,-57.92 0,-33.76 -26.08,-57.92 -59.36,-57.92 -33.12,0 -59.68,24.32 -59.68,57.92 z m 93.28,0 c 0,19.68 -13.44,35.2 -33.6,35.2 -20,0 -33.92,-15.68 -33.92,-35.2 0,-19.68 13.44,-35.2 33.6,-35.2 20,0 33.92,15.68 33.92,35.2 z m 72.00006,56 v -71.2 l 54.24,71.2 H 1008.56 V 69 h -24.31999 v 68.96 L 931.76001,69 h -22.72 v 112 z m 152.80019,0 V 91.72 h 34.08 V 69 h -92.8 v 22.72 h 34.08 V 181 Z"
     id="text1"
     aria-label="NOMA   ONT" />
  <g
     inkscape:groupmode="layer"
     inkscape:label="Image"
     id="g1"
     transform="matrix(1.0947449,0,0,1.0947449,-24.275901,-18.015267)">
    <path
       class="b"
       d="m 693.16012,114.84409 -38.77934,3.85694 -1.37116,-13.7908 52.91761,-5.263084 -4.64279,-46.689127 -107.16207,10.656739 14.3901,144.703192 54.06724,-5.37735 -4.40728,-41.00864 39.28537,-3.90591 -4.29301,-43.18196 z"
       id="path8"
       style="fill:#16f069;stroke-width:0.233189"
       sodipodi:nodetypes="cccccccccccc" />
    <polygon
       class="c"
       points="624.79,500.8 624.79,604.05 442.11,604.05 442.11,800.25 317.08,800.25 317.08,251.57 661.23,251.57 661.23,353.82 442.11,353.82 442.11,500.8 "
       id="polygon8"
       style="fill:#0000a6;fill-opacity:1;stroke-width:1.00051;stroke-dasharray:none"
       transform="matrix(0.23318914,0,0,0.23318914,541.10682,10.592216)" />
  </g>
  <metadata
     id="metadata1">
    <rdf:RDF>
      <cc:Work
         rdf:about="">
        <dc:title>Nomafont Pro</dc:title>
      </cc:Work>
    </rdf:RDF>
  </metadata>
</svg>
